<svg width="12" height="12" viewBox="0 0 12 12" fill="none" xmlns="http://www.w3.org/2000/svg">
<path fill-rule="evenodd" clip-rule="evenodd" d="M11.5333 1.76667C11.5333 2.00599 11.3393 2.2 11.1 2.2L4.81314 2.2C4.61993 2.9662 3.9262 3.53333 3.10001 3.53333C2.27381 3.53333 1.58008 2.9662 1.38688 2.2L0.43334 2.2C0.194016 2.2 7.54171e-06 2.00599 7.55217e-06 1.76667C7.56263e-06 1.52734 0.194016 1.33333 0.43334 1.33333L1.38688 1.33333C1.58008 0.567133 2.27381 -4.04747e-07 3.10001 -3.68633e-07C3.9262 -3.32519e-07 4.61993 0.567133 4.81314 1.33333L11.1 1.33333C11.3393 1.33333 11.5333 1.52734 11.5333 1.76667ZM11.5333 5.76667C11.5333 6.00599 11.3393 6.2 11.1 6.2L10.1465 6.2C9.95327 6.9662 9.25953 7.53333 8.43334 7.53333C7.60715 7.53333 6.91341 6.9662 6.72021 6.2L0.43334 6.2C0.194016 6.2 7.36686e-06 6.00599 7.37733e-06 5.76667C7.38779e-06 5.52734 0.194016 5.33333 0.43334 5.33333L6.72021 5.33333C6.91341 4.56713 7.60715 4 8.43334 4C9.25953 4 9.95327 4.56713 10.1465 5.33333L11.1 5.33333C11.3393 5.33333 11.5333 5.52734 11.5333 5.76667ZM11.5333 9.76667C11.5333 10.006 11.3393 10.2 11.1 10.2L4.81314 10.2C4.61993 10.9662 3.9262 11.5333 3.10001 11.5333C2.27381 11.5333 1.58008 10.9662 1.38687 10.2L0.43334 10.2C0.194016 10.2 7.19202e-06 10.006 7.20248e-06 9.76667C7.21294e-06 9.52734 0.194016 9.33333 0.43334 9.33333L1.38687 9.33333C1.58008 8.56713 2.27381 8 3.10001 8C3.9262 8 4.61993 8.56713 4.81314 9.33333L11.1 9.33333C11.3393 9.33333 11.5333 9.52734 11.5333 9.76667ZM9.33334 5.76667C9.33334 5.26961 8.9304 4.86667 8.43334 4.86667C7.93628 4.86667 7.53334 5.26961 7.53334 5.76667C7.53334 6.26372 7.93628 6.66667 8.43334 6.66667C8.9304 6.66667 9.33334 6.26372 9.33334 5.76667ZM4.00001 1.76667C4.00001 1.26961 3.59706 0.866666 3.10001 0.866666C2.60295 0.866666 2.20001 1.26961 2.20001 1.76667C2.20001 2.26372 2.60295 2.66667 3.10001 2.66667C3.59706 2.66667 4.00001 2.26372 4.00001 1.76667ZM4.00001 9.76667C4.00001 9.26961 3.59706 8.86667 3.10001 8.86667C2.60295 8.86667 2.20001 9.26961 2.20001 9.76667C2.20001 10.2637 2.60295 10.6667 3.10001 10.6667C3.59706 10.6667 4.00001 10.2637 4.00001 9.76667Z" fill="#592C82"/>
</svg>
