<svg width="18" height="18" viewBox="0 0 18 18" fill="none" xmlns="http://www.w3.org/2000/svg">
<path fill-rule="evenodd" clip-rule="evenodd" d="M17.65 0.999998C17.65 1.35898 17.359 1.65 17 1.65L13.5627 1.65C16.0159 3.17606 17.65 5.89662 17.65 9C17.65 13.4116 14.3481 17.0509 10.0805 17.5831C9.72423 17.6275 9.39944 17.3748 9.35502 17.0185C9.3106 16.6623 9.56337 16.3375 9.91959 16.2931C13.5446 15.8411 16.35 12.7477 16.35 9C16.35 6.26998 14.8615 3.88642 12.65 2.61873L12.65 6C12.65 6.35898 12.359 6.65 12 6.65C11.641 6.65 11.35 6.35898 11.35 6L11.35 0.999998C11.35 0.641013 11.641 0.349998 12 0.349998L17 0.349998C17.359 0.349998 17.65 0.641013 17.65 0.999998ZM8.64503 0.981461C8.68945 1.33769 8.43668 1.66248 8.08046 1.7069C4.45545 2.15893 1.65002 5.25234 1.65002 9C1.65002 11.73 3.13858 14.1136 5.35002 15.3813L5.35002 12C5.35002 11.641 5.64104 11.35 6.00002 11.35C6.35901 11.35 6.65002 11.641 6.65002 12L6.65002 17C6.65002 17.359 6.35901 17.65 6.00002 17.65L1.00002 17.65C0.641038 17.65 0.350024 17.359 0.350024 17C0.350024 16.641 0.641038 16.35 1.00002 16.35L4.43736 16.35C1.98416 14.8239 0.350025 12.1034 0.350025 9C0.350025 4.58842 3.65198 0.949051 7.91959 0.416887C8.27582 0.372467 8.60061 0.625235 8.64503 0.981461Z" fill="#592C82"/>
</svg>
