<svg width="69" height="59" viewBox="0 0 69 59" fill="none" xmlns="http://www.w3.org/2000/svg">
<path d="M1 12.9585V40.6804L25.1667 52.0953M1 12.9585L25.1667 24.3734M1 12.9585L25.1667 1L49.3334 12.9585M25.1667 52.0953V24.3734M25.1667 52.0953L49.3334 40.6804V12.9585M25.1667 24.3734L40.9032 16.9404M49.3334 12.9585L40.9032 16.9404M11.1163 8.60994L34.159 19.4813V29.809L40.9032 26.5476V16.9404M40.9032 16.9404L17.8605 5.34854M3.81008 32.5269L11.1163 35.7883M3.81008 36.3319L7.7442 37.9626" stroke="#592C82" stroke-width="1.5" stroke-linecap="round"/>
<circle cx="54.8567" cy="45.1904" r="13.0595" fill="white" stroke="#592C82" stroke-width="1.5"/>
<path d="M50.7131 45.881L53.475 47.9524L58.9989 42.4286" stroke="#F3912D" stroke-width="1.5" stroke-linecap="round"/>
</svg>
