<svg width="21" height="18" viewBox="0 0 21 18" fill="none" xmlns="http://www.w3.org/2000/svg">
<path d="M13.5669 1.49991H1.06689V12.3332H13.5669V1.49991Z" stroke="#592C82" stroke-width="1.5" stroke-linecap="round" stroke-linejoin="round"/>
<path d="M13.5669 5.66641H16.9002L19.4002 8.16641V12.3331H13.5669V5.66641Z" stroke="#592C82" stroke-width="1.5" stroke-linecap="round" stroke-linejoin="round"/>
<path d="M4.81698 16.5001C5.96757 16.5001 6.90031 15.5673 6.90031 14.4167C6.90031 13.2661 5.96757 12.3334 4.81698 12.3334C3.66638 12.3334 2.73364 13.2661 2.73364 14.4167C2.73364 15.5673 3.66638 16.5001 4.81698 16.5001Z" stroke="#592C82" stroke-width="1.5" stroke-linecap="round" stroke-linejoin="round"/>
<path d="M15.6502 16.5001C16.8008 16.5001 17.7336 15.5673 17.7336 14.4167C17.7336 13.2661 16.8008 12.3334 15.6502 12.3334C14.4996 12.3334 13.5669 13.2661 13.5669 14.4167C13.5669 15.5673 14.4996 16.5001 15.6502 16.5001Z" stroke="#592C82" stroke-width="1.5" stroke-linecap="round" stroke-linejoin="round"/>
</svg>
