<svg width="183" height="31" viewBox="0 0 183 31" fill="none" xmlns="http://www.w3.org/2000/svg">
<path fill-rule="evenodd" clip-rule="evenodd" d="M0.125103 13.642C0.0884638 13.855 0.0518685 14.0678 0.0122066 14.2793L0 16.2473C0.0445467 16.472 0.0848467 16.6966 0.125107 16.9211L0.125114 16.9211C0.181379 17.2348 0.237566 17.5481 0.305158 17.8603C0.683334 19.5323 1.41763 21.1026 2.45768 22.4633C3.49774 23.8239 4.81893 24.9428 6.33062 25.7433C7.84232 26.5437 9.50875 27.0066 11.2156 27.1004C12.9225 27.1942 14.6293 26.9166 16.2191 26.2865C16.2983 26.2463 16.3887 26.2341 16.4757 26.2518C16.5627 26.2696 16.6411 26.3164 16.6982 26.3845C18.9546 28.5235 21.8136 29.9129 24.8856 30.3634C25.2377 30.4177 25.5925 30.4563 25.9463 30.4949L25.9465 30.4949L25.9466 30.4949L25.9467 30.4949L25.9469 30.4949C26.1113 30.5128 26.2754 30.5307 26.4389 30.5501H27.7572C28.0349 30.5099 28.3138 30.475 28.5927 30.4402C29.1842 30.3662 29.7755 30.2923 30.3541 30.1675C33.9132 29.3998 37.0795 27.3765 39.2774 24.4656C41.4753 21.5546 42.5587 17.9492 42.3307 14.305C42.1027 10.6607 40.5785 7.21942 38.0351 4.60684C35.4918 1.99425 32.0982 0.383803 28.4713 0.0682808C23.9946 -0.335736 20.0886 1.05996 16.7562 4.07478C16.6872 4.15548 16.5932 4.21074 16.4893 4.23181C16.3854 4.25288 16.2774 4.23855 16.1825 4.19109C14.6224 3.58368 12.9521 3.31373 11.2807 3.39891C9.60938 3.48409 7.97488 3.92247 6.4842 4.68535C4.99358 5.44822 3.68044 6.51834 2.63084 7.82567C1.58124 9.13299 0.818865 10.648 0.393654 12.2714C0.283191 12.723 0.204044 13.1831 0.125103 13.642ZM20.6012 15.2587H23.7413H23.7505C23.7513 13.5317 23.3757 11.8253 22.6498 10.2593C21.9239 8.69327 20.8654 7.30532 19.5484 6.19279C22.5725 3.45039 28.0105 2.23834 32.7831 4.84302C35.165 6.13822 37.0317 8.21394 38.0713 10.7235C39.1108 13.2331 39.2603 16.0244 38.4949 18.6312C37.7293 21.238 36.0952 23.5025 33.8654 25.0462C31.6356 26.5899 28.9451 27.3194 26.2436 27.1129C20.0031 26.6905 15.0901 21.27 15.206 15.2893H11.8646C11.8548 18.164 12.6625 20.9819 14.1929 23.4125C12.8878 23.8083 11.5039 23.8652 10.1709 23.5778C8.43426 23.2196 6.85301 22.3251 5.64896 21.0198C4.44494 19.7144 3.67858 18.0637 3.45744 16.2993C2.85628 11.7664 6.20692 7.43853 10.7416 6.86924C11.8459 6.71811 12.9691 6.78706 14.0468 7.0723C15.1245 7.35749 16.1354 7.85322 17.0216 8.53112C17.9079 9.20901 18.652 10.0558 19.2112 11.0227C19.7705 11.9896 20.134 13.0578 20.2808 14.166C20.2969 14.2882 20.3024 14.4116 20.3078 14.5348C20.3149 14.6925 20.3219 14.85 20.351 15.0047C20.3693 15.1057 20.5127 15.2587 20.6012 15.2587ZM104.166 5.08788V11.9868C104.073 11.8897 103.99 11.8012 103.914 11.7194C103.762 11.556 103.635 11.4194 103.5 11.295C101.166 9.15868 97.0891 9.43716 94.883 11.8858C94.121 12.7083 93.558 13.6949 93.2357 14.7698C92.9135 15.8448 92.841 16.9795 93.0243 18.0868C93.3507 20.4803 94.52 22.3504 96.7291 23.4523C99.1245 24.6521 102.292 24.2144 104.007 22.0382C104.057 21.9962 104.11 21.9583 104.166 21.9249V23.2901C104.166 23.7584 104.169 23.7584 104.651 23.7584H107.309V5.08788H104.166ZM103.53 14.7477C103.994 15.3989 104.257 16.1728 104.285 16.9727C104.288 19.3295 102.512 21.1812 100.245 21.1904C99.4462 21.1941 98.6651 20.9619 97.9978 20.5229C97.3305 20.0839 96.807 19.4575 96.4925 18.7218C96.178 17.9861 96.087 17.1739 96.2295 16.3864C96.3727 15.599 96.7441 14.8713 97.297 14.2941C97.8498 13.7169 98.5597 13.3159 99.3384 13.1411C100.117 12.9663 100.93 13.0255 101.676 13.3112C102.421 13.5969 103.066 14.0966 103.53 14.7477ZM156.189 11.947C156.997 10.9925 158.087 10.3222 159.302 10.034C161.905 9.47398 164.111 10.1963 165.814 12.2592C168.221 15.1761 167.843 19.9508 165.045 22.4698C162.909 24.392 159.582 24.643 157.327 23.0361C156.931 22.727 156.551 22.397 156.189 22.0474V23.3758C156.204 23.6819 156.1 23.7737 155.799 23.7706C155.19 23.7584 154.581 23.7625 153.966 23.7665H153.966H153.966H153.966H153.965H153.965H153.965H153.965H153.964H153.964C153.655 23.7686 153.345 23.7706 153.034 23.7706V5.06649H153.894C154.106 5.06649 154.318 5.06819 154.529 5.0699C154.952 5.0733 155.375 5.0767 155.799 5.06649C156.103 5.06649 156.192 5.15221 156.189 5.45522V11.5369V11.947ZM160.123 21.1782C160.96 21.2032 161.784 20.9769 162.492 20.5285C163.2 20.08 163.758 19.4297 164.095 18.6611C164.431 17.8924 164.531 17.0403 164.382 16.2142C164.233 15.388 163.841 14.6253 163.257 14.024C162.673 13.4227 161.923 13.0101 161.103 12.8391C160.284 12.6682 159.432 12.7466 158.657 13.0644C157.883 13.3822 157.22 13.9249 156.755 14.6229C156.289 15.3208 156.042 16.1423 156.046 16.9819C156.035 17.5282 156.133 18.0712 156.333 18.5794C156.534 19.0875 156.832 19.5508 157.212 19.9422C157.593 20.3337 158.046 20.6456 158.547 20.8598C159.048 21.0741 159.587 21.1865 160.132 21.1904L160.123 21.1782ZM178.24 23.6298C179.723 23.0845 180.947 21.9966 181.664 20.5844C181.212 20.3578 180.773 20.1528 180.333 19.963C179.896 19.759 179.46 19.5549 179.027 19.3509C177.556 21.6587 175.496 21.6587 174.044 21.0986C172.674 20.569 171.587 19.106 171.712 17.946H182.088C182.088 17.7391 182.092 17.5378 182.097 17.3404C182.106 16.9567 182.114 16.5876 182.088 16.2197C181.838 12.8713 179.433 10.0003 175.652 9.87485C173.394 9.80141 171.453 10.5941 170.037 12.403C168.414 14.4782 168.115 16.838 168.835 19.3264C169.099 20.3104 169.598 21.2151 170.289 21.9618C170.98 22.7086 171.843 23.2748 172.802 23.6114C174.551 24.2873 176.486 24.2938 178.24 23.6298ZM175.014 12.5071C177.065 12.3877 178.658 13.6334 178.917 15.6015H171.74C171.752 14.1844 173.44 12.5989 175.014 12.5071ZM66.5033 17.946C66.4356 19.1917 67.5007 20.5721 68.8987 21.1139C70.7508 21.8301 72.2004 21.3159 73.8453 19.3417L76.454 20.5813C75.7705 21.9019 74.651 22.9437 73.2864 23.5288C70.5741 24.7011 67.1652 24.0889 65.1849 22.0321C63.6862 20.4772 63.1495 18.5581 63.2957 16.4524C63.473 13.9058 64.6111 11.8827 66.8969 10.6645C70.6412 8.66894 75.9232 10.3034 76.799 15.6076C76.8774 16.2113 76.9134 16.8199 76.9056 17.4288C76.9056 17.946 76.8906 17.946 76.3629 17.946H66.5033ZM66.5123 15.5892H73.7015C73.6045 14.7389 73.1984 13.9542 72.5616 13.3847C71.9243 12.8152 71.1007 12.5006 70.2471 12.5009C68.4135 12.4765 66.7561 13.8293 66.5123 15.5892ZM110.749 11.7575C110.244 12.3416 109.882 13.035 109.689 13.7834L111.956 14.3894L111.958 14.3899C112.27 14.4699 112.423 14.5094 112.534 14.4576C112.643 14.4071 112.71 14.2698 112.844 13.9987L112.848 13.9915C112.929 13.8275 113.023 13.6709 113.131 13.5232C113.796 12.605 115.106 12.2561 116.302 12.6693C117.275 13.009 117.758 13.8018 117.736 15.0077C117.736 15.2342 117.666 15.3168 117.431 15.3444C116.293 15.476 115.154 15.6167 114.022 15.7821C112.905 15.9088 111.829 16.2797 110.87 16.8686C108.682 18.2735 108.588 22.026 111.028 23.4614C112.921 24.5755 115.847 24.2389 117.373 22.6748C117.467 22.581 117.554 22.4828 117.642 22.3842L117.642 22.3842L117.642 22.3841L117.642 22.384L117.642 22.3839L117.643 22.3837C117.681 22.3409 117.719 22.2981 117.758 22.2555H117.852C117.852 22.3842 117.854 22.5128 117.856 22.6414C117.86 22.8981 117.864 23.1544 117.852 23.4094C117.84 23.6787 117.928 23.7675 118.203 23.7675C118.96 23.7491 119.716 23.743 120.471 23.7675C120.806 23.7797 120.87 23.6542 120.87 23.3482V16.5717C120.87 16.4407 120.87 16.3095 120.87 16.1783C120.869 15.4916 120.869 14.8041 120.803 14.1231C120.626 12.3571 119.772 11.0165 118.09 10.3585C117.218 9.996 116.282 9.81426 115.338 9.82426C114.394 9.83427 113.462 10.0358 112.597 10.4166C111.886 10.7144 111.254 11.1734 110.749 11.7575ZM116.828 17.786L116.828 17.7859C117.123 17.7484 117.417 17.7109 117.712 17.6705V17.6797C117.995 20.1619 116.231 21.8667 113.833 21.4658C113.478 21.437 113.143 21.288 112.883 21.0434C112.623 20.7988 112.454 20.4729 112.402 20.1191C112.352 19.7771 112.419 19.4282 112.592 19.1292C112.764 18.8302 113.033 18.5987 113.354 18.4724C113.873 18.2685 114.413 18.1267 114.965 18.0501C115.586 17.9442 116.207 17.8651 116.828 17.786ZM81.8528 23.7338H78.6607V10.2146H81.8343V11.8979C81.8978 11.8513 81.9583 11.8002 82.0146 11.745C83.07 10.3553 84.5106 9.8136 86.207 9.86259C87.904 9.91153 89.332 10.4747 90.3054 11.9469C90.9673 12.9968 91.2979 14.2224 91.2542 15.4637V23.3757C91.2542 23.6818 91.1565 23.7736 90.8576 23.7644C90.0442 23.7481 89.2302 23.7481 88.4167 23.7644C88.1112 23.7644 88.0226 23.6818 88.0262 23.3726C88.0381 20.9241 88.0381 18.4816 88.0262 16.0453C88.0232 15.6067 87.9585 15.1708 87.8339 14.7506C87.4673 13.5569 86.6131 12.9417 85.3923 12.8345C84.1716 12.7274 83.1617 13.1406 82.4812 14.2088C82.0625 14.8882 81.8504 15.6753 81.8708 16.4737V23.2533L81.8528 23.7338ZM132.826 23.7369H136.015C136.018 23.7 136.024 23.6658 136.029 23.6332C136.037 23.5742 136.045 23.5209 136.039 23.4676C136.039 22.5635 136.041 21.6598 136.043 20.7562C136.047 18.9494 136.052 17.143 136.039 15.3352C136.024 13.964 135.707 12.6693 134.819 11.5797C133.852 10.3891 132.539 9.91776 131.05 9.8657C129.357 9.80754 127.907 10.3279 126.836 11.7021C126.772 11.7671 126.704 11.8274 126.631 11.8827V10.2116H123.446C123.443 10.2508 123.439 10.2876 123.435 10.3228C123.428 10.3919 123.421 10.4548 123.421 10.5177V23.4125C123.421 23.6849 123.507 23.7675 123.778 23.7675C124.584 23.7492 125.402 23.7461 126.22 23.7675C126.546 23.7737 126.653 23.691 126.653 23.3421V16.4555C126.635 15.6574 126.848 14.8712 127.263 14.1905C128.438 12.3265 131.383 12.351 132.405 14.2365C132.696 14.7905 132.841 15.41 132.826 16.0362V23.287V23.7369ZM138.38 10.2055H141.581V10.6554V10.6616C141.581 13.1265 141.581 15.5914 141.599 18.0532C141.606 18.4195 141.664 18.7832 141.77 19.1336C141.932 19.7128 142.278 20.2226 142.757 20.5843C143.236 20.9459 143.821 21.1393 144.42 21.1344C145.019 21.1295 145.601 20.9267 146.074 20.5573C146.547 20.1879 146.885 19.6725 147.037 19.0908C147.16 18.6189 147.223 18.1336 147.227 17.6461C147.239 16.0912 147.235 14.5364 147.231 12.9815C147.229 12.2041 147.227 11.4267 147.227 10.6493V10.2055H150.428V10.585C150.428 11.4236 150.43 12.2622 150.433 13.1009C150.438 14.7781 150.444 16.4554 150.428 18.1327C150.403 19.9233 149.927 21.5638 148.499 22.7789C147.315 23.7859 145.893 24.095 144.379 24.0981C143.524 24.115 142.673 23.975 141.868 23.6849C139.823 22.9136 138.786 21.3526 138.465 19.256C138.402 18.7966 138.373 18.3332 138.377 17.8695V10.6554L138.38 10.2055ZM56.4328 10.184H54.1533L54.1411 6.19585H50.937V10.2023H48.6605V12.8989C48.8738 12.8989 49.0844 12.902 49.2932 12.9051H49.2933H49.2934C49.7057 12.9112 50.1107 12.9172 50.5158 12.8989C50.8729 12.8805 50.9583 12.9968 50.9583 13.3457V23.2717V23.7584C51.2797 23.7584 51.5966 23.756 51.9105 23.7535H51.9106H51.9107C52.5297 23.7488 53.137 23.7442 53.7444 23.7584C54.0801 23.7645 54.1686 23.6634 54.1686 23.3268V13.3641C54.1686 13.2941 54.1732 13.2235 54.1782 13.1481C54.1839 13.062 54.1899 12.9697 54.1899 12.8652H56.4328V10.184ZM58.2334 23.7369V10.2055H61.4041V23.7369H58.2334ZM58.4112 7.62204C58.7835 7.98917 59.2859 8.19283 59.8079 8.1884C60.0671 8.19247 60.3246 8.1445 60.5654 8.04716C60.8062 7.94988 61.0249 7.80528 61.2088 7.62186C61.3927 7.43845 61.5382 7.21993 61.637 6.97925C61.7353 6.73857 61.785 6.48052 61.782 6.22032C61.7832 5.95719 61.7317 5.69653 61.6305 5.45366C61.5292 5.2108 61.3813 4.99065 61.1938 4.80615C61.0069 4.62165 60.7853 4.47653 60.5415 4.37931C60.2971 4.28209 60.0365 4.23475 59.7743 4.24005C59.2523 4.24452 58.7534 4.45679 58.3875 4.83017C58.0215 5.20356 57.8184 5.70747 57.8228 6.23104C57.8273 6.75463 58.039 7.25497 58.4112 7.62204Z" fill="black"/>
</svg>
